# xmcd
#
# Track frame offsets:
#	150
#	6758
#	12732
#	28105
#	35955
#	49755
#	61655
#	66493
#	76875
#	91725
#	104700
#
# Disc length: 1533 seconds
#
# Revision: 1
# Processed by: cddbd v1.5.1PL0 Copyright (c) Steve Scherf et al.
# Submitted via: CDex 1.50Beta5
#
DISCID=9105fb0b
DTITLE=鳥肌実 - 鳥肌実
DYEAR=1900
DGENRE=
TTITLE0=サムライスピリット
TTITLE1=鳥肌実/終章
TTITLE2=鳥肌実/自己紹介
TTITLE3=MINAGOROSHI
TTITLE4=健太と私 其ノ一
TTITLE5=トラヴィダ語
TTITLE6=夏江
TTITLE7=悪魔巣取金愚(作 休みの国)
TTITLE8=小鳥のさえずり
TTITLE9=健太と私 其ノ二
TTITLE10=ポン中音頭
EXTD=
EXTT0=
EXTT1=
EXTT2=
EXTT3=
EXTT4=
EXTT5=
EXTT6=
EXTT7=
EXTT8=
EXTT9=
EXTT10=
PLAYORDER=
